/* XPM */
static char * bottom_active_xpm[] = {
"32 4 2 1",
" 	c #FFFFFF",
".	c #000000",
"                                ",
"                                ",
"................................",
"................................"};
