/* XPM */
static char * bottom_inactive_xpm[] = {
"32 4 2 1",
" 	c #FFFFFF",
".	c #000000",
"                                ",
"                                ",
"................................",
"................................"};
