/* XPM */
static char * close_inactive_xpm[] = {
"13 19 3 1",
" 	c None",
".	c #000000",
"+	c #FFFFFF",
"   ..........",
"   ++++++++++",
"   ++++++++++",
"   ++++++++++",
"   ++++++++++",
"   ++++++++++",
"   ++++++++++",
"   ++++++++++",
"   ++++++++++",
"   ++++++++++",
"   ++++++++++",
"   ++++++++++",
"   ++++++++++",
"   ++++++++++",
"   ++++++++++",
"   ++++++++++",
"   ++++++++++",
"   ++++++++++",
"   .........."};
