/* XPM */
static char * close_inactive_xpm[] = {
"13 19 2 1",
" 	c #000000",
".	c #FFFFFF",
"             ",
".............",
".............",
".............",
".           .",
". ......... .",
". ......... .",
". ......... .",
". ......... .",
". ......... .",
". ......... .",
". ......... .",
". ......... .",
". ......... .",
".           .",
".............",
".............",
".............",
"             "};
