/* XPM */
static char * close_active_xpm[] = {
"19 19 3 1",
" 	c None",
".	c #000000",
"+	c #FFFFFF",
"      .............",
"      +++++++++++++",
"      +++++++++++++",
"      +++++++++++++",
"      +...........+",
"      +.+++++++++.+",
"      +.+++++++++.+",
"      +.+++++++++.+",
"      +.+++++++++.+",
"      +.+++++++++.+",
"      +.+++++++++.+",
"      +.+++++++++.+",
"      +.+++++++++.+",
"      +.+++++++++.+",
"      +...........+",
"      +++++++++++++",
"      +++++++++++++",
"      +++++++++++++",
"      ............."};
