/* XPM */
static char * hide_active_xpm[] = {
"40 23 3 1",
" 	c None",
".	c #000000",
"+	c #FFFFFF",
"                                        ",
"                                        ",
"                                        ",
"                                        ",
"                                        ",
"  ...............                       ",
"  .++++.++++++++.                       ",
"  .++++.++++++++.                       ",
"  .++++.++++++++.                       ",
"  .++++.++++++++.                       ",
"  ......++++++++.                       ",
"  .+++++++++++++.                       ",
"  .+++++++++++++.                       ",
"  .+++++++++++++.                       ",
"  .+++++++++++++.                       ",
"  .+++++++++++++.                       ",
"  .+++++++++++++.                       ",
"  .+++++++++++++.                       ",
"  .+++++++++++++.                       ",
"  ...............                       ",
"                                        ",
"                                        ",
"                                        "};
