/* XPM */
static char * left_inactive_xpm[] = {
"4 32 2 1",
" 	c #000000",
".	c #FFFFFF",
" ...",
" ...",
" ...",
" ...",
" ...",
" ...",
" ...",
" ...",
" ...",
" ...",
" ...",
" ...",
" ...",
" ...",
" ...",
" ...",
" ...",
" ...",
" ...",
" ...",
" ...",
" ...",
" ...",
" ...",
" ...",
" ...",
" ...",
" ...",
" ...",
" ...",
" ...",
" ..."};
