/* XPM */
static char * right_inactive_xpm[] = {
"4 32 2 1",
" 	c #FFFFFF",
".	c #000000",
"  ..",
"  ..",
"  ..",
"  ..",
"  ..",
"  ..",
"  ..",
"  ..",
"  ..",
"  ..",
"  ..",
"  ..",
"  ..",
"  ..",
"  ..",
"  ..",
"  ..",
"  ..",
"  ..",
"  ..",
"  ..",
"  ..",
"  ..",
"  ..",
"  ..",
"  ..",
"  ..",
"  ..",
"  ..",
"  ..",
"  ..",
"  .."};
