/* XPM */
static char * title_4_inactive_xpm[] = {
"8 19 2 1",
" 	c #000000",
".	c #FFFFFF",
"        ",
"........",
"........",
"........",
"........",
"........",
"........",
"........",
"........",
"........",
"........",
"........",
"........",
"........",
"........",
"........",
"........",
"........",
"        "};
