/* XPM */
static char * title_1_inactive_xpm[] = {
"8 19 2 1",
" 	c #000000",
".	c #FFFFFF",
"        ",
"........",
"........",
"........",
"........",
"........",
"........",
"........",
"........",
"........",
"........",
"........",
"........",
"........",
"........",
"........",
"........",
"........",
"        "};
