/* XPM */
static char * top_left_inactive_xpm[] = {
"23 23 2 1",
" 	c #000000",
".	c #FFFFFF",
"                       ",
" ......................",
" ......................",
" ......................",
" ......................",
" ......................",
" ......................",
" ......................",
" ......................",
" ......................",
" ......................",
" ......................",
" ......................",
" ......................",
" ......................",
" ......................",
" ......................",
" ......................",
"                       ",
" ......................",
" ......................",
" ......................",
" ......................"};
