/* XPM */
static char * top_left_active_xpm[] = {
"23 23 2 1",
" 	c #000000",
".	c #FFFFFF",
"                       ",
" ......................",
" ......................",
" ......................",
" .      ...............",
" ......................",
" .      ...............",
" ......................",
" .      ...............",
" ......................",
" .      ...............",
" ......................",
" .      ...............",
" ......................",
" .      ...............",
" ......................",
" ......................",
" ......................",
"                       ",
" ......................",
" ......................",
" ......................",
" ......................"};
